<svg xmlns="http://www.w3.org/2000/svg" width="520" height="420" viewBox="0 0 520 420" fill="none">
  <defs>
    <linearGradient id="bg" x1="0" y1="0" x2="1" y2="1">
      <stop offset="0%" stop-color="#EAF3FF"/>
      <stop offset="100%" stop-color="#CFE4FF"/>
    </linearGradient>
    <linearGradient id="acc" x1="0" y1="0" x2="1" y2="1">
      <stop offset="0%" stop-color="#1E90FF"/>
      <stop offset="100%" stop-color="#6AA8FF"/>
    </linearGradient>
  </defs>
  <rect x="0" y="0" width="520" height="420" rx="24" fill="url(#bg)"/>
  <circle cx="430" cy="80" r="38" fill="url(#acc)" opacity=".25"/>
  <circle cx="120" cy="330" r="22" fill="url(#acc)" opacity=".25"/>
  <g transform="translate(120 70)">
    <rect x="0" y="60" width="280" height="200" rx="18" fill="#fff"/>
    <rect x="18" y="80" width="120" height="14" rx="7" fill="#D7E9FF"/>
    <rect x="18" y="106" width="220" height="12" rx="6" fill="#E7F2FF"/>
    <rect x="18" y="126" width="200" height="12" rx="6" fill="#E7F2FF"/>
    <rect x="18" y="146" width="160" height="12" rx="6" fill="#E7F2FF"/>
    <rect x="18" y="182" width="90" height="28" rx="8" fill="url(#acc)"/>
  </g>
  <g transform="translate(350 70)">
    <rect x="0" y="30" width="120" height="270" rx="20" fill="#fff"/>
    <rect x="20" y="60" width="80" height="8" rx="4" fill="#E7F2FF"/>
    <rect x="20" y="80" width="80" height="8" rx="4" fill="#E7F2FF"/>
    <rect x="20" y="100" width="80" height="8" rx="4" fill="#E7F2FF"/>
    <rect x="20" y="200" width="80" height="32" rx="10" fill="url(#acc)"/>
  </g>
  <path d="M60 360c60-22 120-22 180 0s120 22 180 0" stroke="#A9CCFF" stroke-width="4" stroke-linecap="round" opacity=".5"/>
</svg>
